<svg width="22" height="22" viewBox="0 0 22 22" fill="none" xmlns="http://www.w3.org/2000/svg">
<path d="M17.1508 6.60916C17.0656 6.52324 16.9642 6.45505 16.8525 6.40851C16.7408 6.36197 16.621 6.33801 16.5 6.33801C16.379 6.33801 16.2592 6.36197 16.1475 6.40851C16.0358 6.45505 15.9344 6.52324 15.8492 6.60916L9.01999 13.4475L6.15083 10.5692C6.06235 10.4837 5.9579 10.4165 5.84345 10.3714C5.729 10.3263 5.60679 10.3042 5.48379 10.3063C5.36079 10.3084 5.23942 10.3348 5.12659 10.3838C5.01377 10.4328 4.91171 10.5036 4.82624 10.5921C4.74078 10.6806 4.67357 10.785 4.62847 10.8995C4.58336 11.0139 4.56124 11.1361 4.56337 11.2591C4.5655 11.3821 4.59183 11.5035 4.64087 11.6163C4.68991 11.7291 4.76068 11.8312 4.84916 11.9167L8.36916 15.4367C8.45438 15.5226 8.55576 15.5908 8.66747 15.6373C8.77917 15.6838 8.89898 15.7078 9.01999 15.7078C9.14101 15.7078 9.26082 15.6838 9.37252 15.6373C9.48423 15.5908 9.58561 15.5226 9.67083 15.4367L17.1508 7.95666C17.2439 7.87082 17.3181 7.76664 17.3689 7.65068C17.4197 7.53473 17.4459 7.4095 17.4459 7.28291C17.4459 7.15632 17.4197 7.0311 17.3689 6.91514C17.3181 6.79918 17.2439 6.695 17.1508 6.60916Z" fill="#9B9B9B"/>
</svg>
