<svg width="15" height="15" viewBox="0 0 15 15" fill="none" xmlns="http://www.w3.org/2000/svg">
<path d="M11.6938 4.50625C11.6357 4.44767 11.5666 4.40118 11.4904 4.36945C11.4142 4.33772 11.3325 4.32138 11.25 4.32138C11.1675 4.32138 11.0858 4.33772 11.0097 4.36945C10.9335 4.40118 10.8644 4.44767 10.8063 4.50625L6.15003 9.16875L4.19378 7.20625C4.13345 7.14798 4.06224 7.10216 3.98421 7.07141C3.90617 7.04065 3.82284 7.02557 3.73898 7.02702C3.65512 7.02847 3.57236 7.04643 3.49544 7.07986C3.41851 7.1133 3.34893 7.16155 3.29065 7.22188C3.23238 7.28221 3.18656 7.35342 3.15581 7.43145C3.12505 7.50949 3.10997 7.59281 3.11142 7.67668C3.11287 7.76054 3.13083 7.8433 3.16426 7.92022C3.1977 7.99714 3.24595 8.06673 3.30628 8.125L5.70628 10.525C5.76438 10.5836 5.83351 10.6301 5.90967 10.6618C5.98583 10.6935 6.06752 10.7099 6.15003 10.7099C6.23254 10.7099 6.31423 10.6935 6.39039 10.6618C6.46655 10.6301 6.53568 10.5836 6.59378 10.525L11.6938 5.425C11.7572 5.36648 11.8078 5.29545 11.8425 5.21638C11.8771 5.13732 11.895 5.05194 11.895 4.96563C11.895 4.87932 11.8771 4.79394 11.8425 4.71488C11.8078 4.63581 11.7572 4.56478 11.6938 4.50625Z" fill="white"/>
</svg>
