<svg width="40" height="40" viewBox="0 0 40 40" fill="none" xmlns="http://www.w3.org/2000/svg">
<path d="M26.685 34.1675C26.9031 33.9443 27.0251 33.6446 27.0251 33.3325C27.0251 33.0204 26.9031 32.7207 26.685 32.4975L14.5025 20L26.685 7.505C26.9031 7.28175 27.0251 6.98207 27.0251 6.67C27.0251 6.35793 26.9031 6.05824 26.685 5.835C26.579 5.72614 26.4523 5.63962 26.3123 5.58054C26.1723 5.52146 26.0219 5.49102 25.87 5.49102C25.7181 5.49102 25.5677 5.52146 25.4277 5.58054C25.2877 5.63962 25.161 5.72614 25.055 5.835L12.1 19.1275C11.8725 19.3609 11.7451 19.674 11.7451 20C11.7451 20.326 11.8725 20.6391 12.1 20.8725L25.055 34.165C25.161 34.2739 25.2877 34.3604 25.4277 34.4195C25.5677 34.4785 25.7181 34.509 25.87 34.509C26.0219 34.509 26.1723 34.4785 26.3123 34.4195C26.4523 34.3604 26.579 34.2739 26.685 34.165V34.1675Z" fill="black"/>
</svg>
