<svg width="40" height="40" viewBox="0 0 40 40" fill="none" xmlns="http://www.w3.org/2000/svg">
<path d="M13.315 5.8325C13.0969 6.05575 12.9749 6.35544 12.9749 6.6675C12.9749 6.97957 13.0969 7.27926 13.315 7.5025L25.4975 20L13.315 32.495C13.0969 32.7182 12.9749 33.0179 12.9749 33.33C12.9749 33.6421 13.0969 33.9418 13.315 34.165C13.421 34.2739 13.5477 34.3604 13.6877 34.4195C13.8277 34.4785 13.9781 34.509 14.13 34.509C14.2819 34.509 14.4323 34.4785 14.5723 34.4195C14.7123 34.3604 14.839 34.2739 14.945 34.165L27.9 20.8725C28.1275 20.6391 28.2549 20.326 28.2549 20C28.2549 19.674 28.1275 19.3609 27.9 19.1275L14.945 5.835C14.839 5.72614 14.7123 5.63962 14.5723 5.58054C14.4323 5.52147 14.2819 5.49103 14.13 5.49103C13.9781 5.49103 13.8277 5.52147 13.6877 5.58054C13.5477 5.63962 13.421 5.72614 13.315 5.835V5.8325Z" fill="black"/>
</svg>
