<svg width="17" height="30" viewBox="0 0 17 30" fill="none" xmlns="http://www.w3.org/2000/svg">
<path d="M1.31499 0.832503C1.09693 1.05575 0.974854 1.35544 0.974854 1.6675C0.974854 1.97957 1.09693 2.27926 1.31499 2.5025L13.4975 15L1.31499 27.495C1.09693 27.7182 0.974854 28.0179 0.974854 28.33C0.974854 28.6421 1.09693 28.9418 1.31499 29.165C1.42098 29.2739 1.5477 29.3604 1.68768 29.4195C1.82766 29.4785 1.97805 29.509 2.12999 29.509C2.28192 29.509 2.43232 29.4785 2.57229 29.4195C2.71227 29.3604 2.839 29.2739 2.94499 29.165L15.9 15.8725C16.1275 15.6391 16.2549 15.326 16.2549 15C16.2549 14.674 16.1275 14.3609 15.9 14.1275L2.94499 0.835003C2.839 0.726145 2.71227 0.639622 2.57229 0.580544C2.43232 0.521465 2.28192 0.491028 2.12999 0.491028C1.97805 0.491028 1.82766 0.521465 1.68768 0.580544C1.5477 0.639622 1.42098 0.726145 1.31499 0.835003V0.832503Z" fill="white"/>
</svg>
