<svg width="17" height="30" viewBox="0 0 17 30" fill="none" xmlns="http://www.w3.org/2000/svg">
<path d="M15.685 29.1675C15.9031 28.9443 16.0251 28.6446 16.0251 28.3325C16.0251 28.0204 15.9031 27.7207 15.685 27.4975L3.50251 15L15.685 2.505C15.9031 2.28175 16.0251 1.98207 16.0251 1.67C16.0251 1.35793 15.9031 1.05824 15.685 0.834997C15.579 0.726138 15.4523 0.639616 15.3123 0.580537C15.1723 0.521459 15.0219 0.491023 14.87 0.491023C14.7181 0.491023 14.5677 0.521459 14.4277 0.580537C14.2877 0.639616 14.161 0.726138 14.055 0.834997L1.10001 14.1275C0.87248 14.3609 0.745136 14.674 0.745136 15C0.745136 15.326 0.87248 15.6391 1.10001 15.8725L14.055 29.165C14.161 29.2739 14.2877 29.3604 14.4277 29.4195C14.5677 29.4785 14.7181 29.509 14.87 29.509C15.0219 29.509 15.1723 29.4785 15.3123 29.4195C15.4523 29.3604 15.579 29.2739 15.685 29.165V29.1675Z" fill="white"/>
</svg>
