<svg width="14" height="14" viewBox="0 0 14 14" fill="none" xmlns="http://www.w3.org/2000/svg">
<path d="M11.9586 4.66025C11.8805 4.58393 11.7756 4.5412 11.6664 4.5412C11.5571 4.5412 11.4522 4.58393 11.3741 4.66025L6.99998 8.92412L2.62673 4.66025C2.5486 4.58393 2.44371 4.5412 2.33448 4.5412C2.22526 4.5412 2.12037 4.58393 2.04223 4.66025C2.00413 4.69734 1.97385 4.7417 1.95317 4.79069C1.9325 4.83968 1.92184 4.89232 1.92184 4.94549C1.92184 4.99867 1.9325 5.05131 1.95317 5.1003C1.97385 5.1493 2.00413 5.19365 2.04223 5.23075L6.69461 9.76499C6.77631 9.84463 6.88589 9.8892 6.99998 9.8892C7.11408 9.8892 7.22366 9.84463 7.30536 9.76499L11.9577 5.23075C11.9958 5.19365 12.0261 5.1493 12.0468 5.1003C12.0675 5.05131 12.0781 4.99867 12.0781 4.94549C12.0781 4.89232 12.0675 4.83968 12.0468 4.79069C12.0261 4.7417 11.9958 4.69734 11.9577 4.66025H11.9586Z" fill="#F20000"/>
</svg>
